<svg width="15" height="18" viewBox="0 0 15 18" fill="none" xmlns="http://www.w3.org/2000/svg">
<path d="M12.193 9.54475C12.1749 7.37496 13.9724 6.31734 14.0561 6.27008C13.0372 4.78722 11.458 4.58369 10.9013 4.56915C9.57316 4.43106 8.28867 5.36149 7.61189 5.36149C6.92415 5.36149 5.88345 4.58369 4.75911 4.60552C3.31452 4.6273 1.96456 5.46325 1.2259 6.75712C-0.302372 9.39937 0.836565 13.2809 2.30297 15.418C3.03433 16.4647 3.88946 17.6314 5.01019 17.5914C6.10543 17.5478 6.51661 16.8936 7.83747 16.8936C9.14742 16.8936 9.5331 17.5914 10.6757 17.566C11.851 17.5478 12.5933 16.5156 13.2992 15.4616C14.147 14.2623 14.4854 13.0811 14.5 13.0229C14.4709 13.0047 12.2149 12.1434 12.193 9.54475ZM10.0353 3.16262C10.6247 2.42484 11.0286 1.42537 10.9158 0.407715C10.0644 0.44404 8.99457 0.996479 8.38326 1.71612C7.84112 2.35215 7.35351 3.39158 7.48089 4.36927C8.43422 4.43831 9.42031 3.88587 10.0353 3.16262Z" fill="white"/>
</svg>
