<svg width="15" height="16" viewBox="0 0 15 16" fill="none" xmlns="http://www.w3.org/2000/svg">
<path d="M0.855926 15.5844C0.618631 15.466 0.5 15.1697 0.5 14.8734C0.5 14.8141 0.5 14.6957 0.5 14.6364C0.5 10.2517 0.5 5.86693 0.5 1.54146C0.5 1.30444 0.559315 1.1267 0.618631 0.889688C0.67798 0.771162 0.796611 0.652671 0.915276 0.53418C3.46614 3.08205 5.95769 5.62992 8.44924 8.17782C5.89838 10.5479 3.40683 13.0366 0.855926 15.5844Z" fill="white"/>
<path d="M10.9409 5.57054C10.229 6.28159 9.4578 6.99261 8.74594 7.76291C6.37302 5.33353 3.94079 2.90415 1.56787 0.474773C1.56787 0.474773 1.56787 0.415527 1.62719 0.415527C4.71199 2.13385 7.79676 3.85222 10.9409 5.57054Z" fill="white"/>
<path d="M1.56787 15.5845C3.94079 13.2144 6.37302 10.8443 8.74594 8.47412C9.39848 9.12589 10.1104 9.7777 10.8816 10.4887C7.79676 12.2071 4.71199 13.9254 1.62719 15.5845H1.56787Z" fill="white"/>
<path d="M11.2967 10.2516C10.5255 9.54057 9.81368 8.82952 9.04248 8.1185C9.81368 7.34821 10.5849 6.57791 11.356 5.80762C11.5933 5.92611 11.8306 6.04463 12.0679 6.22237C12.6612 6.57791 13.3137 6.87418 13.9069 7.22968C14.0849 7.28893 14.2036 7.40745 14.3222 7.58519C14.5595 7.88145 14.5595 8.17775 14.3222 8.47401C14.2036 8.5925 14.0849 8.71103 13.9069 8.77027C13.0764 9.30355 12.1866 9.77759 11.2967 10.2516Z" fill="white"/>
</svg>
