<svg width="132" height="46" viewBox="0 0 132 46" fill="none" xmlns="http://www.w3.org/2000/svg">
<path d="M17.7171 27.5501C17.7372 27.5413 17.7552 27.5337 17.7706 27.5273L17.7707 27.5273C17.9998 27.4331 18.2255 27.3343 18.4483 27.232C18.4513 27.2306 18.4544 27.2292 18.4574 27.2278C18.6767 27.127 18.8932 27.0229 19.1072 26.9165M17.7171 27.5501L17.5662 27.0299C17.7246 26.9065 17.8879 26.7892 18.048 26.6781C18.3333 26.4563 18.5435 26.261 18.6969 26.0898C18.697 26.0897 18.697 26.0896 18.6971 26.0896C18.7196 26.0645 18.7409 26.0398 18.761 26.0157L19.1449 26.3361L19.3713 26.7819C19.344 26.7957 19.3139 26.8112 19.2824 26.8274C19.2256 26.8567 19.1643 26.8883 19.1072 26.9165M17.7171 27.5501C17.7326 27.5371 17.7483 27.5243 17.7641 27.5114C17.7641 27.5114 17.7641 27.5114 17.7642 27.5113C17.9469 27.3626 18.1444 27.2196 18.344 27.0814L17.7171 27.5501ZM19.1072 26.9165C19.1073 26.9165 19.1074 26.9165 19.1075 26.9164L18.9339 26.5669C18.9339 26.5669 18.9338 26.5669 18.9338 26.5669L19.1072 26.9165ZM33.1492 21.1211L32.9246 21.4869L32.8694 21.4701L32.6744 21.5963C32.262 21.863 31.6711 21.9964 30.9867 21.8247L30.7441 22.6954C30.5966 22.6555 30.4534 22.6187 30.3163 22.586C30.0054 22.5117 29.7076 22.4539 29.4497 22.4315C29.2356 22.4129 28.9614 22.4088 28.7274 22.5099C28.4719 22.5871 27.7966 22.8379 27.1658 23.0779C26.4814 23.3383 25.7778 23.6136 25.5946 23.6953C24.0633 24.3778 23.518 24.8158 22.4647 25.6617C22.3216 25.7766 22.1692 25.8991 22.0036 26.0307L22.0035 26.0307L21.9991 26.0343C21.6644 26.3066 21.3217 26.5566 20.9615 26.774C20.6018 26.991 20.2243 27.1755 19.8197 27.3168L19.7836 27.3295L19.7498 27.3474C19.3289 27.5713 18.9131 27.7912 18.4929 27.9999L18.4928 27.9999C18.0731 28.2085 17.651 28.4046 17.2207 28.5815C17.1407 28.6144 17.0755 28.6433 17.0158 28.6699C16.9579 28.6955 16.9052 28.7189 16.8493 28.7414C17.1813 28.5143 17.5224 28.2929 17.8691 28.0716L17.9019 28.0507L17.931 28.025C18.1348 27.8451 18.3735 27.6692 18.6286 27.4924L18.6396 27.4848L18.6502 27.4766C19.0223 27.1883 19.3112 26.9171 19.5287 26.6565L18.9184 25.8903C18.8804 25.9096 18.846 25.9274 18.8131 25.9443C18.7623 25.9705 18.7149 25.9949 18.6629 26.0207L18.6627 26.0208C18.243 26.2292 17.8208 26.4255 17.3905 26.6024C17.3102 26.6354 17.2448 26.6644 17.185 26.691C17.1274 26.7165 17.0749 26.7398 17.0192 26.7622C17.3511 26.5352 17.6922 26.3138 18.0389 26.0925L18.0719 26.0715L18.1012 26.0456C18.1006 26.0461 18.1134 26.0353 18.1489 26.0098C18.1812 25.9866 18.2234 25.9575 18.275 25.9229C18.3782 25.8537 18.5103 25.7684 18.659 25.674C18.9205 25.5081 19.2247 25.3195 19.498 25.15C19.5355 25.1268 19.5725 25.1039 19.6086 25.0815L20.0198 24.8265L19.7784 24.4071C19.7013 24.2732 19.5867 24.1488 19.5164 24.0725C19.5128 24.0685 19.5093 24.0647 19.506 24.0611C19.4127 23.9597 19.3761 23.9169 19.3617 23.8925L19.3617 23.8925C19.3338 23.8454 19.3367 23.8235 19.3373 23.8186L19.3374 23.8184C19.3386 23.809 19.3451 23.7829 19.379 23.744C19.4542 23.6577 19.6101 23.5746 19.7848 23.564L19.785 23.564C19.9597 23.5533 20.1246 23.5626 20.2472 23.5752C20.3079 23.5814 20.3565 23.5883 20.3887 23.5933C20.4048 23.5958 20.4167 23.5979 20.4238 23.5991L20.4307 23.6004L20.4308 23.6004L20.4311 23.6005L20.4315 23.6006L20.6207 23.6383L20.7868 23.5377L20.528 23.11L20.7869 23.5377L20.7869 23.5377L20.787 23.5376L20.7873 23.5374L20.7886 23.5367L20.7931 23.5339L20.8099 23.5237L20.8694 23.4873C20.9185 23.4571 20.9848 23.4161 21.0525 23.3732C21.1193 23.3309 21.1914 23.2844 21.2506 23.2439C21.2795 23.2241 21.3108 23.202 21.3386 23.1806C21.3521 23.1701 21.3703 23.1556 21.3891 23.1387L21.3901 23.1377C21.3918 23.1362 21.3944 23.1338 21.3977 23.1308C21.7924 22.827 22.0905 22.5323 22.3767 22.2493C23.0355 21.5979 23.6318 21.0083 25.1997 20.5123C26.879 19.9812 27.5712 20.1509 28.3372 20.3386C28.6513 20.4156 28.9779 20.4956 29.39 20.5316L30.8802 20.6617L29.7677 19.6616C28.7752 18.7696 27.5274 18.436 26.3995 18.1344C26.3394 18.1184 26.2797 18.1024 26.2204 18.0865C26.1101 18.0549 25.9306 18.0185 25.7446 17.9821C25.9312 17.961 26.1235 17.9617 26.3223 17.9809L26.3223 17.9809L26.3291 17.9815C26.9968 18.0366 27.6564 18.2234 28.3363 18.4679C28.6761 18.5901 29.0149 18.7244 29.3616 18.8622L29.3888 18.873C29.7243 19.0063 30.0675 19.1428 30.413 19.2681L31.9669 19.8318L30.9859 18.5013C30.7031 18.1178 30.2656 17.7929 29.8486 17.5261C29.5385 17.3276 29.2026 17.1389 28.9074 16.9731C28.8021 16.914 28.7021 16.8578 28.6102 16.8051C28.5495 16.7703 28.4924 16.737 28.439 16.7053C28.923 16.6294 29.3118 16.6786 29.6392 16.7952C30.0546 16.9432 30.4128 17.2144 30.7601 17.5672C31.0141 17.8251 31.2396 18.1013 31.4769 18.3918C31.5736 18.5102 31.6722 18.631 31.7755 18.7539C32.1109 19.1528 32.4912 19.5674 32.954 19.8474C33.0204 19.8926 33.0779 19.9301 33.1263 19.9614C33.1376 19.9686 33.148 19.9754 33.1577 19.9816C33.1948 20.0055 33.2218 20.023 33.2459 20.0393C33.2503 20.0423 33.2544 20.0451 33.258 20.0476C33.2588 20.0518 33.2597 20.0564 33.2607 20.0615C33.2723 20.1247 33.2827 20.2082 33.2998 20.3461C33.3033 20.3742 33.307 20.4046 33.3112 20.4375L33.3112 20.4376C33.3395 20.6635 33.2852 20.8995 33.1492 21.1211ZM34.9958 23.7713C35.0011 23.7693 35.0042 23.7686 35.0045 23.7688C35.0047 23.7689 35.0021 23.7699 34.9958 23.7713ZM19.2348 24.7249C18.6513 25.0867 17.9136 25.544 17.7699 25.671L18.9315 24.1474C18.9548 24.1867 18.986 24.2275 19.0211 24.2691C19.0415 24.2565 19.0617 24.244 19.0815 24.2317L19.3245 24.6234C19.3319 24.6345 19.3388 24.6456 19.3451 24.6566C19.3091 24.6789 19.2723 24.7017 19.2348 24.7249ZM16.632 27.033L16.6322 27.0328L16.632 27.033Z" fill="#181930" stroke="#181930"/>
<path d="M43 12V33.5" stroke="#181930" stroke-linecap="round"/>
<path d="M50.98 28.25V18.17H55.236C55.334 18.17 55.4647 18.1747 55.628 18.184C55.796 18.1887 55.9453 18.2027 56.076 18.226C56.678 18.3193 57.1703 18.5177 57.553 18.821C57.9403 19.1243 58.225 19.507 58.407 19.969C58.589 20.4263 58.68 20.9373 58.68 21.502C58.68 22.0667 58.5867 22.58 58.4 23.042C58.218 23.4993 57.9333 23.8797 57.546 24.183C57.1633 24.4863 56.6733 24.6847 56.076 24.778C55.9453 24.7967 55.796 24.8107 55.628 24.82C55.46 24.8293 55.3293 24.834 55.236 24.834H52.884V28.25H50.98ZM52.884 23.056H55.152C55.25 23.056 55.3573 23.0513 55.474 23.042C55.5907 23.0327 55.698 23.014 55.796 22.986C56.0527 22.916 56.251 22.7993 56.391 22.636C56.531 22.468 56.6267 22.2837 56.678 22.083C56.734 21.8777 56.762 21.684 56.762 21.502C56.762 21.32 56.734 21.1287 56.678 20.928C56.6267 20.7227 56.531 20.5383 56.391 20.375C56.251 20.207 56.0527 20.088 55.796 20.018C55.698 19.99 55.5907 19.9713 55.474 19.962C55.3573 19.9527 55.25 19.948 55.152 19.948H52.884V23.056ZM61.7351 28.46C61.1937 28.46 60.7341 28.3573 60.3561 28.152C59.9827 27.942 59.6981 27.6643 59.5021 27.319C59.3107 26.969 59.2151 26.584 59.2151 26.164C59.2151 25.814 59.2687 25.4943 59.3761 25.205C59.4834 24.9157 59.6561 24.6613 59.8941 24.442C60.1367 24.218 60.4611 24.0313 60.8671 23.882C61.1471 23.7793 61.4807 23.6883 61.8681 23.609C62.2554 23.5297 62.6941 23.455 63.1841 23.385C63.6741 23.3103 64.2131 23.2287 64.8011 23.14L64.1151 23.518C64.1151 23.07 64.0077 22.741 63.7931 22.531C63.5784 22.321 63.2191 22.216 62.7151 22.216C62.4351 22.216 62.1434 22.2837 61.8401 22.419C61.5367 22.5543 61.3244 22.7947 61.2031 23.14L59.4811 22.594C59.6724 21.9687 60.0317 21.46 60.5591 21.068C61.0864 20.676 61.8051 20.48 62.7151 20.48C63.3824 20.48 63.9751 20.5827 64.4931 20.788C65.0111 20.9933 65.4031 21.348 65.6691 21.852C65.8184 22.132 65.9071 22.412 65.9351 22.692C65.9631 22.972 65.9771 23.2847 65.9771 23.63V28.25H64.3111V26.696L64.5491 27.018C64.1804 27.5267 63.7814 27.8953 63.3521 28.124C62.9274 28.348 62.3884 28.46 61.7351 28.46ZM62.1411 26.962C62.4911 26.962 62.7851 26.9013 63.0231 26.78C63.2657 26.654 63.4571 26.5117 63.5971 26.353C63.7417 26.1943 63.8397 26.0613 63.8911 25.954C63.9891 25.7487 64.0451 25.5107 64.0591 25.24C64.0777 24.9647 64.0871 24.736 64.0871 24.554L64.6471 24.694C64.0824 24.7873 63.6251 24.8667 63.2751 24.932C62.9251 24.9927 62.6427 25.0487 62.4281 25.1C62.2134 25.1513 62.0244 25.2073 61.8611 25.268C61.6744 25.3427 61.5227 25.4243 61.4061 25.513C61.2941 25.597 61.2101 25.6903 61.1541 25.793C61.1027 25.8957 61.0771 26.01 61.0771 26.136C61.0771 26.3087 61.1191 26.458 61.2031 26.584C61.2917 26.7053 61.4154 26.7987 61.5741 26.864C61.7327 26.9293 61.9217 26.962 62.1411 26.962ZM68.0394 31.61L69.4954 27.606L69.5234 28.782L66.2334 20.69H68.2074L70.4194 26.416H69.9714L72.1694 20.69H74.0734L69.8034 31.61H68.0394ZM78.4677 28.46C77.7164 28.46 77.0887 28.285 76.5847 27.935C76.0807 27.585 75.7004 27.109 75.4437 26.507C75.1917 25.905 75.0657 25.226 75.0657 24.47C75.0657 23.714 75.1917 23.035 75.4437 22.433C75.6957 21.831 76.0667 21.355 76.5567 21.005C77.0467 20.655 77.6511 20.48 78.3697 20.48C79.0931 20.48 79.7231 20.6527 80.2597 20.998C80.7964 21.3433 81.2117 21.817 81.5057 22.419C81.8044 23.0163 81.9537 23.7 81.9537 24.47C81.9537 25.226 81.8067 25.905 81.5127 26.507C81.2234 27.109 80.8174 27.585 80.2947 27.935C79.7721 28.285 79.1631 28.46 78.4677 28.46ZM74.7437 28.25V18.17H76.6617V23.07H76.4237V28.25H74.7437ZM78.1597 26.766C78.5704 26.766 78.9064 26.6633 79.1677 26.458C79.4291 26.2527 79.6227 25.9773 79.7487 25.632C79.8747 25.282 79.9377 24.8947 79.9377 24.47C79.9377 24.05 79.8724 23.6673 79.7417 23.322C79.6111 22.972 79.4081 22.6943 79.1327 22.489C78.8621 22.279 78.5144 22.174 78.0897 22.174C77.6931 22.174 77.3711 22.2697 77.1237 22.461C76.8811 22.6523 76.7037 22.9207 76.5917 23.266C76.4797 23.6113 76.4237 24.0127 76.4237 24.47C76.4237 24.9273 76.4797 25.3287 76.5917 25.674C76.7037 26.0193 76.8857 26.2877 77.1377 26.479C77.3944 26.6703 77.7351 26.766 78.1597 26.766ZM86.0081 28.474C85.4154 28.474 84.9324 28.3737 84.5591 28.173C84.1857 27.9723 83.8941 27.718 83.6841 27.41C83.4787 27.102 83.3317 26.7823 83.2431 26.451C83.1544 26.115 83.1007 25.8093 83.0821 25.534C83.0634 25.2587 83.0541 25.058 83.0541 24.932V20.69H84.9861V24.26C84.9861 24.4327 84.9954 24.6543 85.0141 24.925C85.0327 25.191 85.0911 25.4593 85.1891 25.73C85.2871 26.0007 85.4457 26.227 85.6651 26.409C85.8891 26.591 86.2041 26.682 86.6101 26.682C86.7734 26.682 86.9484 26.6563 87.1351 26.605C87.3217 26.5537 87.4967 26.4557 87.6601 26.311C87.8234 26.1617 87.9564 25.9447 88.0591 25.66C88.1664 25.3707 88.2201 24.9927 88.2201 24.526L89.3121 25.044C89.3121 25.6413 89.1907 26.2013 88.9481 26.724C88.7054 27.2467 88.3391 27.669 87.8491 27.991C87.3637 28.313 86.7501 28.474 86.0081 28.474ZM88.4581 28.25V25.744H88.2201V20.69H90.1381V28.25H88.4581ZM96.9465 28.25V24.68C96.9465 24.5073 96.9371 24.288 96.9185 24.022C96.8998 23.7513 96.8415 23.4807 96.7435 23.21C96.6455 22.9393 96.4845 22.713 96.2605 22.531C96.0411 22.349 95.7285 22.258 95.3225 22.258C95.1591 22.258 94.9841 22.2837 94.7975 22.335C94.6108 22.3863 94.4358 22.4867 94.2725 22.636C94.1091 22.7807 93.9738 22.9953 93.8665 23.28C93.7638 23.5647 93.7125 23.9427 93.7125 24.414L92.6205 23.896C92.6205 23.2987 92.7418 22.7387 92.9845 22.216C93.2271 21.6933 93.5911 21.271 94.0765 20.949C94.5665 20.627 95.1825 20.466 95.9245 20.466C96.5171 20.466 97.0001 20.5663 97.3735 20.767C97.7468 20.9677 98.0361 21.222 98.2415 21.53C98.4515 21.838 98.6008 22.16 98.6895 22.496C98.7781 22.8273 98.8318 23.1307 98.8505 23.406C98.8691 23.6813 98.8785 23.882 98.8785 24.008V28.25H96.9465ZM91.7805 28.25V20.69H93.4745V23.196H93.7125V28.25H91.7805ZM105.547 28.25V24.68C105.547 24.5073 105.538 24.288 105.519 24.022C105.5 23.7513 105.442 23.4807 105.344 23.21C105.246 22.9393 105.085 22.713 104.861 22.531C104.642 22.349 104.329 22.258 103.923 22.258C103.76 22.258 103.585 22.2837 103.398 22.335C103.211 22.3863 103.036 22.4867 102.873 22.636C102.71 22.7807 102.574 22.9953 102.467 23.28C102.364 23.5647 102.313 23.9427 102.313 24.414L101.221 23.896C101.221 23.2987 101.342 22.7387 101.585 22.216C101.828 21.6933 102.192 21.271 102.677 20.949C103.167 20.627 103.783 20.466 104.525 20.466C105.118 20.466 105.601 20.5663 105.974 20.767C106.347 20.9677 106.637 21.222 106.842 21.53C107.052 21.838 107.201 22.16 107.29 22.496C107.379 22.8273 107.432 23.1307 107.451 23.406C107.47 23.6813 107.479 23.882 107.479 24.008V28.25H105.547ZM100.381 28.25V20.69H102.075V23.196H102.313V28.25H100.381ZM109.688 31.61L111.144 27.606L111.172 28.782L107.882 20.69H109.856L112.068 26.416H111.62L113.818 20.69H115.722L111.452 31.61H109.688Z" fill="#181930"/>
</svg>
